<svg width="15" height="13" viewBox="0 0 15 13" xmlns="http://www.w3.org/2000/svg">
<path d="M14.4202 8.96719H5.11549L5.58268 8.01562L13.3452 8.00156C13.6077 8.00156 13.8327 7.81406 13.8796 7.55469L14.9546 1.5375C14.9827 1.37969 14.9405 1.21719 14.8374 1.09375C14.7864 1.033 14.7228 0.984065 14.6511 0.950339C14.5793 0.916613 14.501 0.898903 14.4217 0.898438L4.54674 0.865625L4.46237 0.46875C4.40924 0.215625 4.18112 0.03125 3.92174 0.03125H1.50768C1.36139 0.03125 1.2211 0.0893608 1.11766 0.192799C1.01423 0.296237 0.956116 0.436529 0.956116 0.582813C0.956116 0.729096 1.01423 0.869388 1.11766 0.972826C1.2211 1.07626 1.36139 1.13438 1.50768 1.13438H3.47487L3.84362 2.8875L4.75143 7.28281L3.58268 9.19063C3.52198 9.27254 3.48543 9.36981 3.47714 9.47143C3.46886 9.57305 3.48918 9.67496 3.5358 9.76562C3.62955 9.95156 3.81862 10.0688 4.02799 10.0688H5.00924C4.80005 10.3466 4.68706 10.685 4.68737 11.0328C4.68737 11.9172 5.40612 12.6359 6.29049 12.6359C7.17487 12.6359 7.89362 11.9172 7.89362 11.0328C7.89362 10.6844 7.77799 10.3453 7.57174 10.0688H10.0889C9.87974 10.3466 9.76675 10.685 9.76705 11.0328C9.76705 11.9172 10.4858 12.6359 11.3702 12.6359C12.2546 12.6359 12.9733 11.9172 12.9733 11.0328C12.9733 10.6844 12.8577 10.3453 12.6514 10.0688H14.4217C14.7249 10.0688 14.9733 9.82187 14.9733 9.51719C14.9724 9.37106 14.9137 9.23122 14.8101 9.12818C14.7065 9.02514 14.5663 8.96727 14.4202 8.96719V8.96719ZM4.77643 1.95312L13.7733 1.98281L12.8921 6.91719L5.82487 6.92969L4.77643 1.95312ZM6.29049 11.5266C6.01862 11.5266 5.79674 11.3047 5.79674 11.0328C5.79674 10.7609 6.01862 10.5391 6.29049 10.5391C6.56237 10.5391 6.78424 10.7609 6.78424 11.0328C6.78424 11.1638 6.73222 11.2894 6.63962 11.3819C6.54703 11.4745 6.42144 11.5266 6.29049 11.5266V11.5266ZM11.3702 11.5266C11.0983 11.5266 10.8764 11.3047 10.8764 11.0328C10.8764 10.7609 11.0983 10.5391 11.3702 10.5391C11.6421 10.5391 11.8639 10.7609 11.8639 11.0328C11.8639 11.1638 11.8119 11.2894 11.7193 11.3819C11.6267 11.4745 11.5011 11.5266 11.3702 11.5266V11.5266Z"/>
</svg>
