<svg width="33" height="33" xmlns="http://www.w3.org/2000/svg"><path d="M12.279 4.563h-2.14v1.07h2.14v-1.07ZM12.279 6.702h-2.14v1.07h2.14v-1.07ZM12.279 8.841h-2.14v1.07h2.14V8.84ZM19.766 5.098h-1.07a1.07 1.07 0 0 1-1.07 1.07v1.069a2.142 2.142 0 0 0 2.14-2.14ZM22.44 7.771v-1.07a1.07 1.07 0 0 1-1.07-1.069H20.3a2.142 2.142 0 0 0 2.14 2.14Z"/><path d="M28.055 31.05a10.17 10.17 0 0 1-2.738.123l-9.299-.846a.583.583 0 0 1 .053-1.164h7.17a1.34 1.34 0 0 0 1.338-1.338v-.013c0-.28-.092-.554-.26-.779l-1.225-1.632a.603.603 0 0 1-.12-.36v-.091a.6.6 0 0 1 1.024-.424l2.342 2.341a.536.536 0 0 0 .378.157h5.883v-1.07h-5.662l-2.184-2.185a1.701 1.701 0 0 0-.176-.152V11.515a.535.535 0 0 0-.535-.535h-.535V9.376h.802a1.872 1.872 0 0 0 0-3.744h-.055a1.67 1.67 0 0 0-2.36-2.343 2.14 2.14 0 0 0-4.26 0 1.67 1.67 0 0 0-2.36 2.343h-.056c-.277 0-.552.062-.802.181v-2.32a3.209 3.209 0 1 0-6.418 0v7.487h-.534a.535.535 0 0 0-.535.535v2.352l-2.872 2.461H.513v1.07h3.744a.535.535 0 0 0 .348-.129l3.1-2.657a1.76 1.76 0 0 1 1.143-.423.222.222 0 0 1 .157.378l-1.918 1.918a.535.535 0 0 0 .379.913h5.615a.267.267 0 0 1 0 .535H9.07a.535.535 0 0 0 0 1.07h5.615a.267.267 0 1 1 0 .534H9.07a.535.535 0 0 0 0 1.07h4.546a.267.267 0 0 1 0 .534H9.07a.535.535 0 1 0 0 1.07h2.64a.033.033 0 0 1 .025.054.034.034 0 0 1-.02.012l-3.673.46-3.638-1.04a.534.534 0 0 0-.147-.02H.513v1.069h3.669l2.749.785v5.097h.001a.53.53 0 0 0 .534.535h7.059a1.652 1.652 0 0 0 1.396 2.23l9.299.845a11.139 11.139 0 0 0 3.026-.135l4.45-.809-.19-1.052-4.451.808ZM13.348 8.841a.535.535 0 0 1 .535-.535h1.07a2.141 2.141 0 0 1 2.139 2.14.536.536 0 0 1-.535.534h-1.07a2.141 2.141 0 0 1-2.139-2.139Zm1.872-2.14h1.337a.535.535 0 0 0 .378-.912l-.802-.802a.599.599 0 1 1 .848-.848l.802.802a.535.535 0 0 0 .913-.378v-1.07a1.07 1.07 0 0 1 2.14 0v1.07a.535.535 0 0 0 .912.378l.802-.802a.6.6 0 0 1 .848.848l-.802.802a.534.534 0 0 0 .378.913h1.337a.802.802 0 0 1 0 1.604h-1.337a.535.535 0 0 0-.534.535v.285a3.201 3.201 0 0 0-4.481.198 3.214 3.214 0 0 0-3.006-2.087h-.488a.804.804 0 0 1 .755-.535Zm7.152 4.28h-4.143a2.14 2.14 0 0 1 4.143 0ZM9.07 3.492a2.14 2.14 0 1 1 4.278 0V7.33a1.607 1.607 0 0 0-1.07 1.512c0 .79.292 1.552.82 2.14H9.07V3.492Zm1.07 8.557h1.07v4.278h-1.07V12.05Zm-1.292 1.07c-.287 0-.573.044-.848.13v-1.2h1.07v1.09a1.295 1.295 0 0 0-.222-.02Zm.222 2.895v.313h-.313l.313-.313Zm1.07 7.537 1.07-.134v3.92l-1.07-1.07v-2.716Zm-2.073.26 1.003-.126v2.582L8 27.338v-3.523a.545.545 0 0 0 .067-.004Zm.69 4.282.848-.849.848.849H8.757Zm3.522-4.906a1.104 1.104 0 0 0 .534-.944v-.033h.803a1.338 1.338 0 0 0 1.305-1.625 1.337 1.337 0 0 0-.236-2.653h-.294a1.338 1.338 0 0 0-1.31-1.605h-.802V12.05h11.23v11.232a1.671 1.671 0 0 0-1.604 1.668v.091c0 .362.118.713.334 1.002l1.225 1.632a.23.23 0 0 1 .046.137v.013a.268.268 0 0 1-.268.269H12.279v-4.906Z"/></svg>