<svg xmlns="http://www.w3.org/2000/svg" viewBox="0 0 512 512"><path fill-rule="evenodd" d="m261.958 70.1183c105.9343 0 191.8397 85.9054 191.8397 191.8397s-85.9054 191.8397-191.8397 191.8397-191.8397-85.9054-191.8397-191.8397 85.9054-191.8397 191.8397-191.8397zm0 38.3674c-84.6203 0-153.4723 68.8528-153.4723 153.4723s68.8528 153.4723 153.4723 153.4723 153.4723-68.8528 153.4723-153.4723-68.8528-153.4723-153.4723-153.4723zm43.9886 82.3569 27.1267 27.1267-43.9895 43.9886 43.9895 43.9886-27.1267 27.1267-43.9886-43.9895-43.9886 43.9895-27.1267-27.1267 43.9895-43.9886-43.9895-43.9886 27.1267-27.1267 43.9886 43.9895 43.9886-43.9895z"/></svg>