<svg xmlns="http://www.w3.org/2000/svg" viewBox="0 0 305 305"><path d="M154.3765 40.0008C91.309 40.0008 40 91.309 40 154.3758s51.309 114.375 114.3765 114.375c63.0667 0 114.375-51.3083 114.375-114.375S217.4433 40.0008 154.3765 40.0008zm0 210C101.6478 250.0007 58.75 207.1045 58.75 154.3758c0-52.728 42.8978-95.625 95.6265-95.625 52.728 0 95.625 42.897 95.625 95.625 0 52.7288-42.897 95.625-95.625 95.625z"/><path d="m209.9631 114.1157-73.3423 73.3431-33.5324-33.5324c-3.9544-3.9536-10.3648-3.9536-14.3192 0-3.9536 3.9544-3.9536 10.3648 0 14.3192l40.692 40.692a10.0966 10.0966 90 007.1596 2.9654c2.5912 0 5.1824-.989 7.1596-2.9654l80.5019-80.5019c3.9536-3.9544 3.9536-10.3648 0-14.3192-3.9544-3.9544-10.3656-3.9544-14.3192-.0008z"/></svg>