<svg xmlns="http://www.w3.org/2000/svg" viewBox="-7.5 0 32 32"><path d="M16.08 9.96H11.8v-.84c0-1.44-1.12-2.64-2.48-2.64H7.6c-1.36 0-2.48 1.2-2.48 2.64v.84H.84c-.48 0-.84.4-.84.84 0 .48.36.84.84.84h.84V22.8c0 1.48 1.2 2.72 2.72 2.72h8.16c1.48 0 2.72-1.2 2.72-2.72V11.64h.84c.48 0 .84-.36.84-.84-.04-.44-.44-.84-.88-.84zM6.8 9.12c0-.52.36-.96.8-.96h1.72c.44 0 .8.44.8.96v.84H6.8v-.84zm6.76 13.68c0 .56-.48 1.04-1.04 1.04H4.36c-.56 0-1.04-.48-1.04-1.04V11.64h1.8v8.24c0 .48.36.84.84.84s.84-.36.84-.84v-8.24h3.28v8.24c0 .48.36.84.84.84s.84-.36.84-.84v-8.24h1.8V22.8z"/></svg>